<svg viewBox="0 0 600 450" xmlns="http://www.w3.org/2000/svg">
  <defs>
    <linearGradient id="bg2" x1="0" y1="0" x2="1" y2="1">
      <stop offset="0%" stop-color="#181C26"/>
      <stop offset="100%" stop-color="#0F1117"/>
    </linearGradient>
    <radialGradient id="glow2" cx="30%" cy="70%" r="60%">
      <stop offset="0%" stop-color="#2563EB" stop-opacity="0.22"/>
      <stop offset="100%" stop-color="#2563EB" stop-opacity="0"/>
    </radialGradient>
  </defs>
  <rect width="600" height="450" fill="url(#bg2)"/>
  <rect width="600" height="450" fill="url(#glow2)"/>

  <!-- Server rack -->
  <rect x="180" y="60" width="240" height="340" rx="10" fill="#181C26" stroke="#3A4150" stroke-width="2.5"/>

  <!-- Rack units -->
  <g>
    <rect x="200" y="85" width="200" height="38" rx="4" fill="#0F1117" stroke="#272B36" stroke-width="1.5"/>
    <circle cx="216" cy="104" r="4" fill="#22C55E"/>
    <circle cx="232" cy="104" r="4" fill="#3B82F6"/>
    <rect x="250" y="98" width="120" height="12" rx="2" fill="#232833"/>

    <rect x="200" y="133" width="200" height="38" rx="4" fill="#0F1117" stroke="#2563EB" stroke-width="1.5" opacity="0.7"/>
    <circle cx="216" cy="152" r="4" fill="#22C55E"/>
    <circle cx="232" cy="152" r="4" fill="#22C55E"/>
    <rect x="250" y="146" width="120" height="12" rx="2" fill="#232833"/>

    <rect x="200" y="181" width="200" height="38" rx="4" fill="#0F1117" stroke="#272B36" stroke-width="1.5"/>
    <circle cx="216" cy="200" r="4" fill="#3B82F6"/>
    <circle cx="232" cy="200" r="4" fill="#3B82F6"/>
    <rect x="250" y="194" width="120" height="12" rx="2" fill="#232833"/>

    <!-- Patch panel with ports -->
    <rect x="200" y="229" width="200" height="48" rx="4" fill="#0F1117" stroke="#272B36" stroke-width="1.5"/>
    <g fill="#1E2330" stroke="#3A4150" stroke-width="1">
      <rect x="212" y="244" width="14" height="18" rx="2"/>
      <rect x="232" y="244" width="14" height="18" rx="2"/>
      <rect x="252" y="244" width="14" height="18" rx="2"/>
      <rect x="272" y="244" width="14" height="18" rx="2"/>
      <rect x="292" y="244" width="14" height="18" rx="2"/>
      <rect x="312" y="244" width="14" height="18" rx="2"/>
      <rect x="332" y="244" width="14" height="18" rx="2"/>
      <rect x="352" y="244" width="14" height="18" rx="2"/>
      <rect x="372" y="244" width="14" height="18" rx="2"/>
    </g>

    <!-- Drive bays -->
    <rect x="200" y="288" width="200" height="90" rx="4" fill="#0F1117" stroke="#272B36" stroke-width="1.5"/>
    <rect x="216" y="300" width="168" height="18" rx="2" fill="#1E2330" stroke="#3A4150"/>
    <circle cx="370" cy="309" r="3" fill="#22C55E"/>
    <rect x="216" y="324" width="168" height="18" rx="2" fill="#1E2330" stroke="#3A4150"/>
    <circle cx="370" cy="333" r="3" fill="#22C55E"/>
    <rect x="216" y="348" width="168" height="18" rx="2" fill="#1E2330" stroke="#2563EB"/>
    <circle cx="370" cy="357" r="3" fill="#3B82F6"/>
  </g>

  <!-- Cloud sync icon -->
  <g transform="translate(460,130)">
    <path d="M0,20 a18,18 0 0,1 35,-4 a14,14 0 0,1 -2,28 h-30 a16,16 0 0,1 -3,-24z" fill="#181C26" stroke="#2563EB" stroke-width="2"/>
    <path d="M16,18 v18 M10,28 l6,8 l6,-8" stroke="#3B82F6" stroke-width="2.2" fill="none" stroke-linecap="round" stroke-linejoin="round"/>
  </g>
  <line x1="420" y1="240" x2="470" y2="175" stroke="#2563EB" stroke-width="1.5" stroke-dasharray="5 5" opacity="0.5"/>

  <!-- Floating data labels -->
  <g font-family="Inter, sans-serif" font-size="11" fill="#64748B">
    <text x="460" y="225">⬤ 30-day retention</text>
    <text x="460" y="245">⬤ Motion-triggered</text>
    <text x="460" y="265">⬤ Remote access</text>
  </g>

  <g stroke="#2563EB" stroke-width="2" opacity="0.5" fill="none">
    <path d="M 30 30 L 30 55 M 30 30 L 55 30"/>
    <path d="M 570 30 L 570 55 M 570 30 L 545 30"/>
    <path d="M 30 420 L 30 395 M 30 420 L 55 420"/>
    <path d="M 570 420 L 570 395 M 570 420 L 545 420"/>
  </g>
</svg>
