<svg viewBox="0 0 600 450" xmlns="http://www.w3.org/2000/svg">
  <defs>
    <linearGradient id="bg7" x1="0" y1="0" x2="1" y2="1">
      <stop offset="0%" stop-color="#181C26"/>
      <stop offset="100%" stop-color="#0F1117"/>
    </linearGradient>
    <radialGradient id="glow7" cx="50%" cy="50%" r="65%">
      <stop offset="0%" stop-color="#2563EB" stop-opacity="0.18"/>
      <stop offset="100%" stop-color="#2563EB" stop-opacity="0"/>
    </radialGradient>
  </defs>
  <rect width="600" height="450" fill="url(#bg7)"/>
  <rect width="600" height="450" fill="url(#glow7)"/>

  <!-- Open rack cabinet -->
  <rect x="160" y="50" width="280" height="360" rx="6" fill="#181C26" stroke="#3A4150" stroke-width="3"/>
  <rect x="170" y="60" width="14" height="340" fill="#0F1117"/>
  <rect x="416" y="60" width="14" height="340" fill="#0F1117"/>

  <!-- Rack mounting holes -->
  <g fill="#0F1117">
    <circle cx="177" cy="75" r="2"/><circle cx="177" cy="95" r="2"/><circle cx="177" cy="115" r="2"/>
    <circle cx="177" cy="135" r="2"/><circle cx="177" cy="155" r="2"/><circle cx="177" cy="175" r="2"/>
    <circle cx="177" cy="195" r="2"/><circle cx="177" cy="215" r="2"/><circle cx="177" cy="235" r="2"/>
    <circle cx="177" cy="255" r="2"/><circle cx="177" cy="275" r="2"/><circle cx="177" cy="295" r="2"/>
    <circle cx="177" cy="315" r="2"/><circle cx="177" cy="335" r="2"/><circle cx="177" cy="355" r="2"/>
    <circle cx="423" cy="75" r="2"/><circle cx="423" cy="95" r="2"/><circle cx="423" cy="115" r="2"/>
    <circle cx="423" cy="135" r="2"/><circle cx="423" cy="155" r="2"/><circle cx="423" cy="175" r="2"/>
    <circle cx="423" cy="195" r="2"/><circle cx="423" cy="215" r="2"/><circle cx="423" cy="235" r="2"/>
    <circle cx="423" cy="255" r="2"/><circle cx="423" cy="275" r="2"/><circle cx="423" cy="295" r="2"/>
    <circle cx="423" cy="315" r="2"/><circle cx="423" cy="335" r="2"/><circle cx="423" cy="355" r="2"/>
  </g>

  <!-- Equipment units -->
  <g>
    <rect x="190" y="68" width="220" height="34" rx="3" fill="#0F1117" stroke="#272B36" stroke-width="1.5"/>
    <text x="200" y="89" font-family="Inter, sans-serif" font-size="9" fill="#64748B">UPS — 1500VA</text>
    <circle cx="395" cy="85" r="3" fill="#22C55E"/>

    <rect x="190" y="106" width="220" height="34" rx="3" fill="#0F1117" stroke="#2563EB" stroke-width="1.5" opacity="0.8"/>
    <text x="200" y="127" font-family="Inter, sans-serif" font-size="9" fill="#94A3B8">48-PORT SWITCH</text>
    <g fill="#3B82F6"><circle cx="370" cy="123" r="2.5"/><circle cx="380" cy="123" r="2.5"/><circle cx="390" cy="123" r="2.5"/><circle cx="400" cy="123" r="2.5"/></g>

    <rect x="190" y="144" width="220" height="44" rx="3" fill="#0F1117" stroke="#272B36" stroke-width="1.5"/>
    <text x="200" y="170" font-family="Inter, sans-serif" font-size="9" fill="#64748B">PATCH PANEL · 24 PORT</text>
    <g fill="#1E2330" stroke="#3A4150" stroke-width="0.8">
      <rect x="200" y="174" width="10" height="12" rx="1"/><rect x="214" y="174" width="10" height="12" rx="1"/>
      <rect x="228" y="174" width="10" height="12" rx="1"/><rect x="242" y="174" width="10" height="12" rx="1"/>
      <rect x="256" y="174" width="10" height="12" rx="1"/><rect x="270" y="174" width="10" height="12" rx="1"/>
      <rect x="284" y="174" width="10" height="12" rx="1"/><rect x="298" y="174" width="10" height="12" rx="1"/>
    </g>

    <rect x="190" y="198" width="220" height="34" rx="3" fill="#0F1117" stroke="#272B36" stroke-width="1.5"/>
    <text x="200" y="219" font-family="Inter, sans-serif" font-size="9" fill="#64748B">NVR — RECORDER</text>
    <circle cx="395" cy="215" r="3" fill="#22C55E"/>

    <rect x="190" y="236" width="220" height="60" rx="3" fill="#0F1117" stroke="#272B36" stroke-width="1.5"/>
    <text x="200" y="258" font-family="Inter, sans-serif" font-size="9" fill="#64748B">STORAGE ARRAY</text>
    <rect x="200" y="266" width="200" height="14" rx="2" fill="#1E2330" stroke="#3A4150"/>
    <rect x="200" y="284" width="200" height="14" rx="2" fill="#1E2330" stroke="#2563EB"/>
  </g>

  <!-- Cable management arm -->
  <path d="M 410 240 C 460 240, 460 280, 430 295" stroke="#3B82F6" stroke-width="3" fill="none" opacity="0.5" stroke-linecap="round"/>

  <!-- Documentation tag -->
  <g transform="translate(450,330)">
    <rect x="0" y="0" width="120" height="56" rx="8" fill="#181C26" stroke="#2563EB" stroke-width="2"/>
    <text x="12" y="20" font-family="Inter, sans-serif" font-size="9" font-weight="700" fill="#F8FAFC">AS-BUILT DOC</text>
    <text x="12" y="35" font-family="Inter, sans-serif" font-size="8" fill="#94A3B8">Rack A — Floor 2</text>
    <text x="12" y="47" font-family="Inter, sans-serif" font-size="8" fill="#94A3B8">Updated 06/2026</text>
  </g>

  <g stroke="#2563EB" stroke-width="2" opacity="0.5" fill="none">
    <path d="M 30 30 L 30 55 M 30 30 L 55 30"/>
    <path d="M 570 30 L 570 55 M 570 30 L 545 30"/>
    <path d="M 30 420 L 30 395 M 30 420 L 55 420"/>
    <path d="M 570 420 L 570 395 M 570 420 L 545 420"/>
  </g>
</svg>
